<svg id="Layer_1" data-name="Layer 1" xmlns="http://www.w3.org/2000/svg" viewBox="0 0 32 32"><title>logo</title><path d="M21.22,32H10.78A10.78,10.78,0,0,1,0,21.22V10.78A10.78,10.78,0,0,1,10.78,0H21.22A10.78,10.78,0,0,1,32,10.78V21.22A10.78,10.78,0,0,1,21.22,32Zm-1-25a5.74,5.74,0,0,0-2.35.43,4.11,4.11,0,0,0-1.66,1.44,9.81,9.81,0,0,0-1.25,2.69L12,19.82A2.55,2.55,0,0,1,11.31,21a1.53,1.53,0,0,1-1,.34,2.38,2.38,0,0,1-.59-.06A2,2,0,0,1,9.21,21l-.66,2.23a3.15,3.15,0,0,0,1,.61A4.42,4.42,0,0,0,11,24q3,0,3.84-3.14l1.48-4.73.58-2.34.51,2.25L19,21l4,0L19.8,14.17l-1.23-2.88.25-.66a1.58,1.58,0,0,1,.62-.8,2.14,2.14,0,0,1,1-.22,4,4,0,0,1,1.07.12,1.9,1.9,0,0,1,.75.43l.76-2.42A4.82,4.82,0,0,0,20.18,7Zm1.31,14.16a2,2,0,1,0,2,2A2,2,0,0,0,21.49,21.12Z" transform="translate(0 0)"/></svg>